<svg xmlns="http://www.w3.org/2000/svg" width="1400" height="375" viewBox="0 0 1400 375">
    <g fill="#FEFEFE" fill-rule="evenodd">
        <path d="M96.484 193.882h4.441v-4.441h-4.441zM427.35 329.337h4.441v-4.441h-4.441zM216.395 318.234h4.441v-4.441h-4.441zM600.555 181.668h4.441v-4.44h-4.441zM961.887 278.264h4.44v-4.441h-4.44zM1192.332 360.858h4.441v-4.44h-4.441zM682.094 242.734h3.331v-3.331h-3.331zM1028.504 187.22h3.331v-3.331h-3.331zM1028.504 353.763h3.331v-3.33h-3.331zM850.858 131.706h3.331v-3.331h-3.331zM1350.488 231.632h3.331v-3.331h-3.331zM220.836 158.353h3.331v-3.331h-3.331zM394.529 216.087h3.331v-3.33h-3.331zM22.582 359.19h3.331v-3.331h-3.331zM1165.07 158.353h3.331v-3.331h-3.331zM501.117 157.242h2.221v-2.221h-2.221zM573.286 318.234h2.22v-2.221h-2.22zM153.928 256.058h2.22v-2.221h-2.22zM949.695 97.079h2.221v-2.221h-2.221zM790.902 361.535h2.221v-2.221h-2.221zM950.806 337.558h2.221v-2.221h-2.221zM-.43 188.175h2.221v-2.221H-.43zM349.008 339.008h2.22v-2.221h-2.22zM72.546 301.602h2.22v-2.221h-2.22zM43.678 133.926h2.221v-2.22h-2.221zM891.45 251.616h2.221v-2.22h-2.221zM1151.746 218.308h2.221v-2.221h-2.221zM1273.878 241.624h2.221v-2.221h-2.221zM1354.906 352.638h2.221v-2.22h-2.221zM1243.899 327.669h2.221v-2.221h-2.221zM1104.003 300.47h2.221v-2.221h-2.221zM516.661 196.103h2.221v-2.221h-2.221zM349.008 263.83h2.22v-2.221h-2.22zM1048.388 263.83h2.22v-2.221h-2.22zM793.123 208.316h2.22v-2.221h-2.22zM342.345 228.301h2.221v-2.221h-2.221zM184.628 352.668h2.221v-2.221h-2.221zM149.099 359.329h2.221v-2.221h-2.221zM266.342 293.808h1.11v-1.11h-1.11zM24.248 264.941h1.11v-1.11h-1.11zM394.529 184.999h1.11v-1.11h-1.11zM462.257 229.411h1.11v-1.11h-1.11zM644.36 304.933h1.11v-1.11h-1.11zM724.286 215.532h1.109v-1.11h-1.109zM647.675 167.235h1.11v-1.11h-1.11zM716.513 314.903h1.11v-1.11h-1.11zM914.145 314.903h1.109v-1.11h-1.109zM964.108 207.205h1.11v-1.11h-1.11zM1087.349 167.235h1.11v-1.11h-1.11zM1119.462 347.102h1.11v-1.11h-1.11zM311.258 330.447h1.11v-1.11h-1.11zM130.281 293.808h1.11v-1.11h-1.11zM492.235 299.359h1.11v-1.11h-1.11zM691.014 337.146h1.11v-1.11h-1.11zM725.395 150.581h1.11v-1.11h-1.11zM850.858 299.359h1.11v-1.11h-1.11zM1185.797 272.712h1.11v-1.11h-1.11zM1331.613 288.256h1.11v-1.11h-1.11zM1218.364 197.213h1.11v-1.11h-1.11zM982.631 295.335h1.109v-1.11h-1.109zM1399.474 333.696h1.11v-1.11h-1.11zM1394.9 167.235h1.11v-1.11h-1.11zM919.696 207.205h1.11v-1.11h-1.11zM825.322 270.491h1.11v-1.11h-1.11zM726.506 276.043h1.11v-1.11h-1.11zM226.357 198.322h1.11v-1.109h-1.11zM474.47 276.043h1.11v-1.11h-1.11zM526.654 354.873h1.11v-1.11h-1.11zM632.146 349.344h1.11v-1.109h-1.11zM575.507 287.146h1.11v-1.11h-1.11zM763.145 314.903h1.11v-1.11h-1.11zM869.733 354.873h1.11v-1.11h-1.11zM965.749 44h1v-1h-1zM1119.749 1h1V0h-1zM107.748 2h1V1h-1zM276.748 53h1v-1h-1zM472.748 1h1V0h-1zM598.748 88h1v-1h-1zM680.748 17h1v-1h-1zM745.748 88h1v-1h-1zM1345.748 77h1v-1h-1zM1206.748 88h1v-1h-1zM1051.748 89h1v-1h-1zM994.748 135h1v-1.001h-1zM842.748 45.001h1V44h-1zM348.748 104h1v-1h-1zM145.748 60h1.001v-1h-1.001zM34.748 34h2v-2h-2zM218.748 89h2v-2h-2zM360.748 10h2V8h-2zM472.748 89h2v-2h-2zM579.748 27h2v-2h-2zM694.748 61h2v-2h-2zM892.748 18h2v-2h-2zM1024.748 46h2v-2h-2zM1120.748 110h2v-2h-2zM1295.748 63h2v-2h-2zM1331.748 146h2v-2h-2zM392.257 368.411h1.11v-1.11h-1.11zM280.836 364.353h3.331v-3.331h-3.331zM733.285 374.234h2.221v-2.22h-2.221zM1004.286 365.532h1.109v-1.11h-1.109z"/>
    </g>
</svg>
